<svg xmlns="http://www.w3.org/2000/svg" version="1.1" xmlns:xlink="http://www.w3.org/1999/xlink" xmlns:svgjs="http://svgjs.dev/svgjs" width="1125" height="750" preserveAspectRatio="none" viewBox="0 0 1125 750"><g mask="url(&quot;#SvgjsMask1236&quot;)" fill="none"><rect width="1125" height="750" x="0" y="0" fill="url(&quot;#SvgjsLinearGradient1237&quot;)"></rect><path d="M86.52 -7.49L165.33 38.01L165.33 129.01L86.52 174.51L7.71 129.01L7.71 38.01zM165.33 129.01L244.14 174.51L244.14 265.51L165.33 311.01L86.52 265.51L86.52 174.51zM322.95 402.01L401.76 447.51L401.76 538.51L322.95 584.01L244.14 538.51L244.14 447.51zM401.76 538.51L480.57 584.01L480.57 675.01L401.76 720.51L322.95 675.01L322.95 584.01zM480.57 675.01L559.38 720.51L559.38 811.51L480.57 857.01L401.76 811.51L401.76 720.51zM638.19 129.01L717 174.51L717 265.51L638.19 311.01L559.38 265.51L559.38 174.51zM559.38 265.51L638.19 311.01L638.19 402.01L559.38 447.51L480.57 402.01L480.57 311.01zM638.19 402.01L717 447.51L717 538.51L638.19 584.01L559.38 538.51L559.38 447.51zM874.63 -7.49L953.44 38.01L953.44 129.01L874.63 174.51L795.81 129.01L795.81 38.01zM874.63 265.51L953.44 311.01L953.44 402.01L874.63 447.51L795.81 402.01L795.81 311.01zM953.44 402.01L1032.25 447.51L1032.25 538.51L953.44 584.01L874.63 538.51L874.63 447.51zM953.44 675.01L1032.25 720.51L1032.25 811.51L953.44 857.01L874.63 811.51L874.63 720.51zM1032.25 265.51L1111.06 311.01L1111.06 402.01L1032.25 447.51L953.44 402.01L953.44 311.01zM1032.25 538.51L1111.06 584.01L1111.06 675.01L1032.25 720.51L953.44 675.01L953.44 584.01zM1111.06 675.01L1189.87 720.51L1189.87 811.51L1111.06 857.01L1032.25 811.51L1032.25 720.51zM1189.87 -7.49L1268.68 38.01L1268.68 129.01L1189.87 174.51L1111.06 129.01L1111.06 38.01zM1268.68 402.01L1347.49 447.51L1347.49 538.51L1268.68 584.01L1189.87 538.51L1189.87 447.51zM1268.68 675.01L1347.49 720.51L1347.49 811.51L1268.68 857.01L1189.87 811.51L1189.87 720.51z" stroke="url(&quot;#SvgjsLinearGradient1238&quot;)" stroke-width="2"></path><path d="M77.42 -7.49 a9.1 9.1 0 1 0 18.2 0 a9.1 9.1 0 1 0 -18.2 0zM156.23 38.01 a9.1 9.1 0 1 0 18.2 0 a9.1 9.1 0 1 0 -18.2 0zM156.23 129.01 a9.1 9.1 0 1 0 18.2 0 a9.1 9.1 0 1 0 -18.2 0zM77.42 174.51 a9.1 9.1 0 1 0 18.2 0 a9.1 9.1 0 1 0 -18.2 0zM-1.39 129.01 a9.1 9.1 0 1 0 18.2 0 a9.1 9.1 0 1 0 -18.2 0zM-1.39 38.01 a9.1 9.1 0 1 0 18.2 0 a9.1 9.1 0 1 0 -18.2 0zM235.04 174.51 a9.1 9.1 0 1 0 18.2 0 a9.1 9.1 0 1 0 -18.2 0zM235.04 265.51 a9.1 9.1 0 1 0 18.2 0 a9.1 9.1 0 1 0 -18.2 0zM156.23 311.01 a9.1 9.1 0 1 0 18.2 0 a9.1 9.1 0 1 0 -18.2 0zM77.42 265.51 a9.1 9.1 0 1 0 18.2 0 a9.1 9.1 0 1 0 -18.2 0zM313.85 402.01 a9.1 9.1 0 1 0 18.2 0 a9.1 9.1 0 1 0 -18.2 0zM392.66 447.51 a9.1 9.1 0 1 0 18.2 0 a9.1 9.1 0 1 0 -18.2 0zM392.66 538.51 a9.1 9.1 0 1 0 18.2 0 a9.1 9.1 0 1 0 -18.2 0zM313.85 584.01 a9.1 9.1 0 1 0 18.2 0 a9.1 9.1 0 1 0 -18.2 0zM235.04 538.51 a9.1 9.1 0 1 0 18.2 0 a9.1 9.1 0 1 0 -18.2 0zM235.04 447.51 a9.1 9.1 0 1 0 18.2 0 a9.1 9.1 0 1 0 -18.2 0zM471.47 584.01 a9.1 9.1 0 1 0 18.2 0 a9.1 9.1 0 1 0 -18.2 0zM471.47 675.01 a9.1 9.1 0 1 0 18.2 0 a9.1 9.1 0 1 0 -18.2 0zM392.66 720.51 a9.1 9.1 0 1 0 18.2 0 a9.1 9.1 0 1 0 -18.2 0zM313.85 675.01 a9.1 9.1 0 1 0 18.2 0 a9.1 9.1 0 1 0 -18.2 0zM550.28 720.51 a9.1 9.1 0 1 0 18.2 0 a9.1 9.1 0 1 0 -18.2 0zM550.28 811.51 a9.1 9.1 0 1 0 18.2 0 a9.1 9.1 0 1 0 -18.2 0zM471.47 857.01 a9.1 9.1 0 1 0 18.2 0 a9.1 9.1 0 1 0 -18.2 0zM392.66 811.51 a9.1 9.1 0 1 0 18.2 0 a9.1 9.1 0 1 0 -18.2 0zM629.09 129.01 a9.1 9.1 0 1 0 18.2 0 a9.1 9.1 0 1 0 -18.2 0zM707.9 174.51 a9.1 9.1 0 1 0 18.2 0 a9.1 9.1 0 1 0 -18.2 0zM707.9 265.51 a9.1 9.1 0 1 0 18.2 0 a9.1 9.1 0 1 0 -18.2 0zM629.09 311.01 a9.1 9.1 0 1 0 18.2 0 a9.1 9.1 0 1 0 -18.2 0zM550.28 265.51 a9.1 9.1 0 1 0 18.2 0 a9.1 9.1 0 1 0 -18.2 0zM550.28 174.51 a9.1 9.1 0 1 0 18.2 0 a9.1 9.1 0 1 0 -18.2 0zM629.09 402.01 a9.1 9.1 0 1 0 18.2 0 a9.1 9.1 0 1 0 -18.2 0zM550.28 447.51 a9.1 9.1 0 1 0 18.2 0 a9.1 9.1 0 1 0 -18.2 0zM471.47 402.01 a9.1 9.1 0 1 0 18.2 0 a9.1 9.1 0 1 0 -18.2 0zM471.47 311.01 a9.1 9.1 0 1 0 18.2 0 a9.1 9.1 0 1 0 -18.2 0zM707.9 447.51 a9.1 9.1 0 1 0 18.2 0 a9.1 9.1 0 1 0 -18.2 0zM707.9 538.51 a9.1 9.1 0 1 0 18.2 0 a9.1 9.1 0 1 0 -18.2 0zM629.09 584.01 a9.1 9.1 0 1 0 18.2 0 a9.1 9.1 0 1 0 -18.2 0zM550.28 538.51 a9.1 9.1 0 1 0 18.2 0 a9.1 9.1 0 1 0 -18.2 0zM865.53 -7.49 a9.1 9.1 0 1 0 18.2 0 a9.1 9.1 0 1 0 -18.2 0zM944.34 38.01 a9.1 9.1 0 1 0 18.2 0 a9.1 9.1 0 1 0 -18.2 0zM944.34 129.01 a9.1 9.1 0 1 0 18.2 0 a9.1 9.1 0 1 0 -18.2 0zM865.53 174.51 a9.1 9.1 0 1 0 18.2 0 a9.1 9.1 0 1 0 -18.2 0zM786.71 129.01 a9.1 9.1 0 1 0 18.2 0 a9.1 9.1 0 1 0 -18.2 0zM786.71 38.01 a9.1 9.1 0 1 0 18.2 0 a9.1 9.1 0 1 0 -18.2 0zM865.53 265.51 a9.1 9.1 0 1 0 18.2 0 a9.1 9.1 0 1 0 -18.2 0zM944.34 311.01 a9.1 9.1 0 1 0 18.2 0 a9.1 9.1 0 1 0 -18.2 0zM944.34 402.01 a9.1 9.1 0 1 0 18.2 0 a9.1 9.1 0 1 0 -18.2 0zM865.53 447.51 a9.1 9.1 0 1 0 18.2 0 a9.1 9.1 0 1 0 -18.2 0zM786.71 402.01 a9.1 9.1 0 1 0 18.2 0 a9.1 9.1 0 1 0 -18.2 0zM786.71 311.01 a9.1 9.1 0 1 0 18.2 0 a9.1 9.1 0 1 0 -18.2 0zM1023.15 447.51 a9.1 9.1 0 1 0 18.2 0 a9.1 9.1 0 1 0 -18.2 0zM1023.15 538.51 a9.1 9.1 0 1 0 18.2 0 a9.1 9.1 0 1 0 -18.2 0zM944.34 584.01 a9.1 9.1 0 1 0 18.2 0 a9.1 9.1 0 1 0 -18.2 0zM865.53 538.51 a9.1 9.1 0 1 0 18.2 0 a9.1 9.1 0 1 0 -18.2 0zM944.34 675.01 a9.1 9.1 0 1 0 18.2 0 a9.1 9.1 0 1 0 -18.2 0zM1023.15 720.51 a9.1 9.1 0 1 0 18.2 0 a9.1 9.1 0 1 0 -18.2 0zM1023.15 811.51 a9.1 9.1 0 1 0 18.2 0 a9.1 9.1 0 1 0 -18.2 0zM944.34 857.01 a9.1 9.1 0 1 0 18.2 0 a9.1 9.1 0 1 0 -18.2 0zM865.53 811.51 a9.1 9.1 0 1 0 18.2 0 a9.1 9.1 0 1 0 -18.2 0zM865.53 720.51 a9.1 9.1 0 1 0 18.2 0 a9.1 9.1 0 1 0 -18.2 0zM1023.15 265.51 a9.1 9.1 0 1 0 18.2 0 a9.1 9.1 0 1 0 -18.2 0zM1101.96 311.01 a9.1 9.1 0 1 0 18.2 0 a9.1 9.1 0 1 0 -18.2 0zM1101.96 402.01 a9.1 9.1 0 1 0 18.2 0 a9.1 9.1 0 1 0 -18.2 0zM1101.96 584.01 a9.1 9.1 0 1 0 18.2 0 a9.1 9.1 0 1 0 -18.2 0zM1101.96 675.01 a9.1 9.1 0 1 0 18.2 0 a9.1 9.1 0 1 0 -18.2 0zM1180.77 720.51 a9.1 9.1 0 1 0 18.2 0 a9.1 9.1 0 1 0 -18.2 0zM1180.77 811.51 a9.1 9.1 0 1 0 18.2 0 a9.1 9.1 0 1 0 -18.2 0zM1101.96 857.01 a9.1 9.1 0 1 0 18.2 0 a9.1 9.1 0 1 0 -18.2 0zM1180.77 -7.49 a9.1 9.1 0 1 0 18.2 0 a9.1 9.1 0 1 0 -18.2 0zM1259.58 38.01 a9.1 9.1 0 1 0 18.2 0 a9.1 9.1 0 1 0 -18.2 0zM1259.58 129.01 a9.1 9.1 0 1 0 18.2 0 a9.1 9.1 0 1 0 -18.2 0zM1180.77 174.51 a9.1 9.1 0 1 0 18.2 0 a9.1 9.1 0 1 0 -18.2 0zM1101.96 129.01 a9.1 9.1 0 1 0 18.2 0 a9.1 9.1 0 1 0 -18.2 0zM1101.96 38.01 a9.1 9.1 0 1 0 18.2 0 a9.1 9.1 0 1 0 -18.2 0zM1259.58 402.01 a9.1 9.1 0 1 0 18.2 0 a9.1 9.1 0 1 0 -18.2 0zM1338.39 447.51 a9.1 9.1 0 1 0 18.2 0 a9.1 9.1 0 1 0 -18.2 0zM1338.39 538.51 a9.1 9.1 0 1 0 18.2 0 a9.1 9.1 0 1 0 -18.2 0zM1259.58 584.01 a9.1 9.1 0 1 0 18.2 0 a9.1 9.1 0 1 0 -18.2 0zM1180.77 538.51 a9.1 9.1 0 1 0 18.2 0 a9.1 9.1 0 1 0 -18.2 0zM1180.77 447.51 a9.1 9.1 0 1 0 18.2 0 a9.1 9.1 0 1 0 -18.2 0zM1259.58 675.01 a9.1 9.1 0 1 0 18.2 0 a9.1 9.1 0 1 0 -18.2 0zM1338.39 720.51 a9.1 9.1 0 1 0 18.2 0 a9.1 9.1 0 1 0 -18.2 0zM1338.39 811.51 a9.1 9.1 0 1 0 18.2 0 a9.1 9.1 0 1 0 -18.2 0zM1259.58 857.01 a9.1 9.1 0 1 0 18.2 0 a9.1 9.1 0 1 0 -18.2 0z" fill="url(&quot;#SvgjsLinearGradient1238&quot;)"></path><path d="M89.76 95.48L146.06 127.98L146.06 192.98L89.76 225.48L33.47 192.98L33.47 127.98zM89.76 290.48L146.06 322.98L146.06 387.98L89.76 420.48L33.47 387.98L33.47 322.98zM89.76 485.48L146.06 517.98L146.06 582.98L89.76 615.48L33.47 582.98L33.47 517.98zM33.47 582.98L89.76 615.48L89.76 680.48L33.47 712.98L-22.82 680.48L-22.82 615.48zM33.47 777.98L89.76 810.48L89.76 875.48L33.47 907.98L-22.82 875.48L-22.82 810.48zM202.35 95.48L258.64 127.98L258.64 192.98L202.35 225.48L146.06 192.98L146.06 127.98zM146.06 192.98L202.35 225.48L202.35 290.48L146.06 322.98L89.76 290.48L89.76 225.48zM146.06 387.98L202.35 420.48L202.35 485.48L146.06 517.98L89.76 485.48L89.76 420.48zM314.94 290.48L371.23 322.98L371.23 387.98L314.94 420.48L258.64 387.98L258.64 322.98zM314.94 485.48L371.23 517.98L371.23 582.98L314.94 615.48L258.64 582.98L258.64 517.98zM258.64 582.98L314.94 615.48L314.94 680.48L258.64 712.98L202.35 680.48L202.35 615.48zM427.52 290.48L483.82 322.98L483.82 387.98L427.52 420.48L371.23 387.98L371.23 322.98zM371.23 387.98L427.52 420.48L427.52 485.48L371.23 517.98L314.94 485.48L314.94 420.48zM427.52 485.48L483.82 517.98L483.82 582.98L427.52 615.48L371.23 582.98L371.23 517.98zM371.23 777.98L427.52 810.48L427.52 875.48L371.23 907.98L314.94 875.48L314.94 810.48zM483.82 -2.02L540.11 30.48L540.11 95.48L483.82 127.98L427.52 95.48L427.52 30.48zM540.11 290.48L596.4 322.98L596.4 387.98L540.11 420.48L483.82 387.98L483.82 322.98zM540.11 680.48L596.4 712.98L596.4 777.98L540.11 810.48L483.82 777.98L483.82 712.98zM652.7 95.48L708.99 127.98L708.99 192.98L652.7 225.48L596.4 192.98L596.4 127.98zM596.4 192.98L652.7 225.48L652.7 290.48L596.4 322.98L540.11 290.48L540.11 225.48zM652.7 680.48L708.99 712.98L708.99 777.98L652.7 810.48L596.4 777.98L596.4 712.98zM596.4 777.98L652.7 810.48L652.7 875.48L596.4 907.98L540.11 875.48L540.11 810.48zM708.99 192.98L765.28 225.48L765.28 290.48L708.99 322.98L652.7 290.48L652.7 225.48zM765.28 290.48L821.58 322.98L821.58 387.98L765.28 420.48L708.99 387.98L708.99 322.98zM821.58 -2.02L877.87 30.48L877.87 95.48L821.58 127.98L765.28 95.48L765.28 30.48zM877.87 95.48L934.16 127.98L934.16 192.98L877.87 225.48L821.58 192.98L821.58 127.98zM877.87 485.48L934.16 517.98L934.16 582.98L877.87 615.48L821.58 582.98L821.58 517.98zM821.58 582.98L877.87 615.48L877.87 680.48L821.58 712.98L765.28 680.48L765.28 615.48zM877.87 680.48L934.16 712.98L934.16 777.98L877.87 810.48L821.58 777.98L821.58 712.98zM934.16 -2.02L990.46 30.48L990.46 95.48L934.16 127.98L877.87 95.48L877.87 30.48zM934.16 387.98L990.46 420.48L990.46 485.48L934.16 517.98L877.87 485.48L877.87 420.48zM934.16 582.98L990.46 615.48L990.46 680.48L934.16 712.98L877.87 680.48L877.87 615.48zM1046.75 -2.02L1103.04 30.48L1103.04 95.48L1046.75 127.98L990.46 95.48L990.46 30.48zM1103.04 95.48L1159.34 127.98L1159.34 192.98L1103.04 225.48L1046.75 192.98L1046.75 127.98zM1103.04 485.48L1159.34 517.98L1159.34 582.98L1103.04 615.48L1046.75 582.98L1046.75 517.98zM1046.75 582.98L1103.04 615.48L1103.04 680.48L1046.75 712.98L990.46 680.48L990.46 615.48zM1046.75 777.98L1103.04 810.48L1103.04 875.48L1046.75 907.98L990.46 875.48L990.46 810.48z" stroke="url(&quot;#SvgjsLinearGradient1239&quot;)" stroke-width="2"></path><path d="M83.26 95.48 a6.5 6.5 0 1 0 13 0 a6.5 6.5 0 1 0 -13 0zM139.56 127.98 a6.5 6.5 0 1 0 13 0 a6.5 6.5 0 1 0 -13 0zM139.56 192.98 a6.5 6.5 0 1 0 13 0 a6.5 6.5 0 1 0 -13 0zM83.26 225.48 a6.5 6.5 0 1 0 13 0 a6.5 6.5 0 1 0 -13 0zM26.97 192.98 a6.5 6.5 0 1 0 13 0 a6.5 6.5 0 1 0 -13 0zM26.97 127.98 a6.5 6.5 0 1 0 13 0 a6.5 6.5 0 1 0 -13 0zM83.26 290.48 a6.5 6.5 0 1 0 13 0 a6.5 6.5 0 1 0 -13 0zM139.56 322.98 a6.5 6.5 0 1 0 13 0 a6.5 6.5 0 1 0 -13 0zM139.56 387.98 a6.5 6.5 0 1 0 13 0 a6.5 6.5 0 1 0 -13 0zM83.26 420.48 a6.5 6.5 0 1 0 13 0 a6.5 6.5 0 1 0 -13 0zM26.97 387.98 a6.5 6.5 0 1 0 13 0 a6.5 6.5 0 1 0 -13 0zM26.97 322.98 a6.5 6.5 0 1 0 13 0 a6.5 6.5 0 1 0 -13 0zM83.26 485.48 a6.5 6.5 0 1 0 13 0 a6.5 6.5 0 1 0 -13 0zM139.56 517.98 a6.5 6.5 0 1 0 13 0 a6.5 6.5 0 1 0 -13 0zM139.56 582.98 a6.5 6.5 0 1 0 13 0 a6.5 6.5 0 1 0 -13 0zM83.26 615.48 a6.5 6.5 0 1 0 13 0 a6.5 6.5 0 1 0 -13 0zM26.97 582.98 a6.5 6.5 0 1 0 13 0 a6.5 6.5 0 1 0 -13 0zM26.97 517.98 a6.5 6.5 0 1 0 13 0 a6.5 6.5 0 1 0 -13 0zM83.26 680.48 a6.5 6.5 0 1 0 13 0 a6.5 6.5 0 1 0 -13 0zM26.97 712.98 a6.5 6.5 0 1 0 13 0 a6.5 6.5 0 1 0 -13 0zM-29.32 680.48 a6.5 6.5 0 1 0 13 0 a6.5 6.5 0 1 0 -13 0zM-29.32 615.48 a6.5 6.5 0 1 0 13 0 a6.5 6.5 0 1 0 -13 0zM26.97 777.98 a6.5 6.5 0 1 0 13 0 a6.5 6.5 0 1 0 -13 0zM83.26 810.48 a6.5 6.5 0 1 0 13 0 a6.5 6.5 0 1 0 -13 0zM83.26 875.48 a6.5 6.5 0 1 0 13 0 a6.5 6.5 0 1 0 -13 0zM26.97 907.98 a6.5 6.5 0 1 0 13 0 a6.5 6.5 0 1 0 -13 0zM-29.32 875.48 a6.5 6.5 0 1 0 13 0 a6.5 6.5 0 1 0 -13 0zM-29.32 810.48 a6.5 6.5 0 1 0 13 0 a6.5 6.5 0 1 0 -13 0zM195.85 95.48 a6.5 6.5 0 1 0 13 0 a6.5 6.5 0 1 0 -13 0zM252.14 127.98 a6.5 6.5 0 1 0 13 0 a6.5 6.5 0 1 0 -13 0zM252.14 192.98 a6.5 6.5 0 1 0 13 0 a6.5 6.5 0 1 0 -13 0zM195.85 225.48 a6.5 6.5 0 1 0 13 0 a6.5 6.5 0 1 0 -13 0zM195.85 290.48 a6.5 6.5 0 1 0 13 0 a6.5 6.5 0 1 0 -13 0zM195.85 420.48 a6.5 6.5 0 1 0 13 0 a6.5 6.5 0 1 0 -13 0zM195.85 485.48 a6.5 6.5 0 1 0 13 0 a6.5 6.5 0 1 0 -13 0zM308.44 290.48 a6.5 6.5 0 1 0 13 0 a6.5 6.5 0 1 0 -13 0zM364.73 322.98 a6.5 6.5 0 1 0 13 0 a6.5 6.5 0 1 0 -13 0zM364.73 387.98 a6.5 6.5 0 1 0 13 0 a6.5 6.5 0 1 0 -13 0zM308.44 420.48 a6.5 6.5 0 1 0 13 0 a6.5 6.5 0 1 0 -13 0zM252.14 387.98 a6.5 6.5 0 1 0 13 0 a6.5 6.5 0 1 0 -13 0zM252.14 322.98 a6.5 6.5 0 1 0 13 0 a6.5 6.5 0 1 0 -13 0zM308.44 485.48 a6.5 6.5 0 1 0 13 0 a6.5 6.5 0 1 0 -13 0zM364.73 517.98 a6.5 6.5 0 1 0 13 0 a6.5 6.5 0 1 0 -13 0zM364.73 582.98 a6.5 6.5 0 1 0 13 0 a6.5 6.5 0 1 0 -13 0zM308.44 615.48 a6.5 6.5 0 1 0 13 0 a6.5 6.5 0 1 0 -13 0zM252.14 582.98 a6.5 6.5 0 1 0 13 0 a6.5 6.5 0 1 0 -13 0zM252.14 517.98 a6.5 6.5 0 1 0 13 0 a6.5 6.5 0 1 0 -13 0zM308.44 680.48 a6.5 6.5 0 1 0 13 0 a6.5 6.5 0 1 0 -13 0zM252.14 712.98 a6.5 6.5 0 1 0 13 0 a6.5 6.5 0 1 0 -13 0zM195.85 680.48 a6.5 6.5 0 1 0 13 0 a6.5 6.5 0 1 0 -13 0zM195.85 615.48 a6.5 6.5 0 1 0 13 0 a6.5 6.5 0 1 0 -13 0zM421.02 290.48 a6.5 6.5 0 1 0 13 0 a6.5 6.5 0 1 0 -13 0zM477.32 322.98 a6.5 6.5 0 1 0 13 0 a6.5 6.5 0 1 0 -13 0zM477.32 387.98 a6.5 6.5 0 1 0 13 0 a6.5 6.5 0 1 0 -13 0zM421.02 420.48 a6.5 6.5 0 1 0 13 0 a6.5 6.5 0 1 0 -13 0zM421.02 485.48 a6.5 6.5 0 1 0 13 0 a6.5 6.5 0 1 0 -13 0zM477.32 517.98 a6.5 6.5 0 1 0 13 0 a6.5 6.5 0 1 0 -13 0zM477.32 582.98 a6.5 6.5 0 1 0 13 0 a6.5 6.5 0 1 0 -13 0zM421.02 615.48 a6.5 6.5 0 1 0 13 0 a6.5 6.5 0 1 0 -13 0zM364.73 777.98 a6.5 6.5 0 1 0 13 0 a6.5 6.5 0 1 0 -13 0zM421.02 810.48 a6.5 6.5 0 1 0 13 0 a6.5 6.5 0 1 0 -13 0zM421.02 875.48 a6.5 6.5 0 1 0 13 0 a6.5 6.5 0 1 0 -13 0zM364.73 907.98 a6.5 6.5 0 1 0 13 0 a6.5 6.5 0 1 0 -13 0zM308.44 875.48 a6.5 6.5 0 1 0 13 0 a6.5 6.5 0 1 0 -13 0zM308.44 810.48 a6.5 6.5 0 1 0 13 0 a6.5 6.5 0 1 0 -13 0zM477.32 -2.02 a6.5 6.5 0 1 0 13 0 a6.5 6.5 0 1 0 -13 0zM533.61 30.48 a6.5 6.5 0 1 0 13 0 a6.5 6.5 0 1 0 -13 0zM533.61 95.48 a6.5 6.5 0 1 0 13 0 a6.5 6.5 0 1 0 -13 0zM477.32 127.98 a6.5 6.5 0 1 0 13 0 a6.5 6.5 0 1 0 -13 0zM421.02 95.48 a6.5 6.5 0 1 0 13 0 a6.5 6.5 0 1 0 -13 0zM421.02 30.48 a6.5 6.5 0 1 0 13 0 a6.5 6.5 0 1 0 -13 0zM533.61 290.48 a6.5 6.5 0 1 0 13 0 a6.5 6.5 0 1 0 -13 0zM589.9 322.98 a6.5 6.5 0 1 0 13 0 a6.5 6.5 0 1 0 -13 0zM589.9 387.98 a6.5 6.5 0 1 0 13 0 a6.5 6.5 0 1 0 -13 0zM533.61 420.48 a6.5 6.5 0 1 0 13 0 a6.5 6.5 0 1 0 -13 0zM533.61 680.48 a6.5 6.5 0 1 0 13 0 a6.5 6.5 0 1 0 -13 0zM589.9 712.98 a6.5 6.5 0 1 0 13 0 a6.5 6.5 0 1 0 -13 0zM589.9 777.98 a6.5 6.5 0 1 0 13 0 a6.5 6.5 0 1 0 -13 0zM533.61 810.48 a6.5 6.5 0 1 0 13 0 a6.5 6.5 0 1 0 -13 0zM477.32 777.98 a6.5 6.5 0 1 0 13 0 a6.5 6.5 0 1 0 -13 0zM477.32 712.98 a6.5 6.5 0 1 0 13 0 a6.5 6.5 0 1 0 -13 0zM646.2 95.48 a6.5 6.5 0 1 0 13 0 a6.5 6.5 0 1 0 -13 0zM702.49 127.98 a6.5 6.5 0 1 0 13 0 a6.5 6.5 0 1 0 -13 0zM702.49 192.98 a6.5 6.5 0 1 0 13 0 a6.5 6.5 0 1 0 -13 0zM646.2 225.48 a6.5 6.5 0 1 0 13 0 a6.5 6.5 0 1 0 -13 0zM589.9 192.98 a6.5 6.5 0 1 0 13 0 a6.5 6.5 0 1 0 -13 0zM589.9 127.98 a6.5 6.5 0 1 0 13 0 a6.5 6.5 0 1 0 -13 0zM646.2 290.48 a6.5 6.5 0 1 0 13 0 a6.5 6.5 0 1 0 -13 0zM533.61 225.48 a6.5 6.5 0 1 0 13 0 a6.5 6.5 0 1 0 -13 0zM646.2 680.48 a6.5 6.5 0 1 0 13 0 a6.5 6.5 0 1 0 -13 0zM702.49 712.98 a6.5 6.5 0 1 0 13 0 a6.5 6.5 0 1 0 -13 0zM702.49 777.98 a6.5 6.5 0 1 0 13 0 a6.5 6.5 0 1 0 -13 0zM646.2 810.48 a6.5 6.5 0 1 0 13 0 a6.5 6.5 0 1 0 -13 0zM646.2 875.48 a6.5 6.5 0 1 0 13 0 a6.5 6.5 0 1 0 -13 0zM589.9 907.98 a6.5 6.5 0 1 0 13 0 a6.5 6.5 0 1 0 -13 0zM533.61 875.48 a6.5 6.5 0 1 0 13 0 a6.5 6.5 0 1 0 -13 0zM758.78 225.48 a6.5 6.5 0 1 0 13 0 a6.5 6.5 0 1 0 -13 0zM758.78 290.48 a6.5 6.5 0 1 0 13 0 a6.5 6.5 0 1 0 -13 0zM702.49 322.98 a6.5 6.5 0 1 0 13 0 a6.5 6.5 0 1 0 -13 0zM815.08 322.98 a6.5 6.5 0 1 0 13 0 a6.5 6.5 0 1 0 -13 0zM815.08 387.98 a6.5 6.5 0 1 0 13 0 a6.5 6.5 0 1 0 -13 0zM758.78 420.48 a6.5 6.5 0 1 0 13 0 a6.5 6.5 0 1 0 -13 0zM702.49 387.98 a6.5 6.5 0 1 0 13 0 a6.5 6.5 0 1 0 -13 0zM815.08 -2.02 a6.5 6.5 0 1 0 13 0 a6.5 6.5 0 1 0 -13 0zM871.37 30.48 a6.5 6.5 0 1 0 13 0 a6.5 6.5 0 1 0 -13 0zM871.37 95.48 a6.5 6.5 0 1 0 13 0 a6.5 6.5 0 1 0 -13 0zM815.08 127.98 a6.5 6.5 0 1 0 13 0 a6.5 6.5 0 1 0 -13 0zM758.78 95.48 a6.5 6.5 0 1 0 13 0 a6.5 6.5 0 1 0 -13 0zM758.78 30.48 a6.5 6.5 0 1 0 13 0 a6.5 6.5 0 1 0 -13 0zM927.66 127.98 a6.5 6.5 0 1 0 13 0 a6.5 6.5 0 1 0 -13 0zM927.66 192.98 a6.5 6.5 0 1 0 13 0 a6.5 6.5 0 1 0 -13 0zM871.37 225.48 a6.5 6.5 0 1 0 13 0 a6.5 6.5 0 1 0 -13 0zM815.08 192.98 a6.5 6.5 0 1 0 13 0 a6.5 6.5 0 1 0 -13 0zM871.37 485.48 a6.5 6.5 0 1 0 13 0 a6.5 6.5 0 1 0 -13 0zM927.66 517.98 a6.5 6.5 0 1 0 13 0 a6.5 6.5 0 1 0 -13 0zM927.66 582.98 a6.5 6.5 0 1 0 13 0 a6.5 6.5 0 1 0 -13 0zM871.37 615.48 a6.5 6.5 0 1 0 13 0 a6.5 6.5 0 1 0 -13 0zM815.08 582.98 a6.5 6.5 0 1 0 13 0 a6.5 6.5 0 1 0 -13 0zM815.08 517.98 a6.5 6.5 0 1 0 13 0 a6.5 6.5 0 1 0 -13 0zM871.37 680.48 a6.5 6.5 0 1 0 13 0 a6.5 6.5 0 1 0 -13 0zM815.08 712.98 a6.5 6.5 0 1 0 13 0 a6.5 6.5 0 1 0 -13 0zM758.78 680.48 a6.5 6.5 0 1 0 13 0 a6.5 6.5 0 1 0 -13 0zM758.78 615.48 a6.5 6.5 0 1 0 13 0 a6.5 6.5 0 1 0 -13 0zM927.66 712.98 a6.5 6.5 0 1 0 13 0 a6.5 6.5 0 1 0 -13 0zM927.66 777.98 a6.5 6.5 0 1 0 13 0 a6.5 6.5 0 1 0 -13 0zM871.37 810.48 a6.5 6.5 0 1 0 13 0 a6.5 6.5 0 1 0 -13 0zM815.08 777.98 a6.5 6.5 0 1 0 13 0 a6.5 6.5 0 1 0 -13 0zM927.66 -2.02 a6.5 6.5 0 1 0 13 0 a6.5 6.5 0 1 0 -13 0zM983.96 30.48 a6.5 6.5 0 1 0 13 0 a6.5 6.5 0 1 0 -13 0zM983.96 95.48 a6.5 6.5 0 1 0 13 0 a6.5 6.5 0 1 0 -13 0zM927.66 387.98 a6.5 6.5 0 1 0 13 0 a6.5 6.5 0 1 0 -13 0zM983.96 420.48 a6.5 6.5 0 1 0 13 0 a6.5 6.5 0 1 0 -13 0zM983.96 485.48 a6.5 6.5 0 1 0 13 0 a6.5 6.5 0 1 0 -13 0zM871.37 420.48 a6.5 6.5 0 1 0 13 0 a6.5 6.5 0 1 0 -13 0zM983.96 615.48 a6.5 6.5 0 1 0 13 0 a6.5 6.5 0 1 0 -13 0zM983.96 680.48 a6.5 6.5 0 1 0 13 0 a6.5 6.5 0 1 0 -13 0zM1040.25 -2.02 a6.5 6.5 0 1 0 13 0 a6.5 6.5 0 1 0 -13 0zM1096.54 30.48 a6.5 6.5 0 1 0 13 0 a6.5 6.5 0 1 0 -13 0zM1096.54 95.48 a6.5 6.5 0 1 0 13 0 a6.5 6.5 0 1 0 -13 0zM1040.25 127.98 a6.5 6.5 0 1 0 13 0 a6.5 6.5 0 1 0 -13 0zM1152.84 127.98 a6.5 6.5 0 1 0 13 0 a6.5 6.5 0 1 0 -13 0zM1152.84 192.98 a6.5 6.5 0 1 0 13 0 a6.5 6.5 0 1 0 -13 0zM1096.54 225.48 a6.5 6.5 0 1 0 13 0 a6.5 6.5 0 1 0 -13 0zM1040.25 192.98 a6.5 6.5 0 1 0 13 0 a6.5 6.5 0 1 0 -13 0zM1096.54 485.48 a6.5 6.5 0 1 0 13 0 a6.5 6.5 0 1 0 -13 0zM1152.84 517.98 a6.5 6.5 0 1 0 13 0 a6.5 6.5 0 1 0 -13 0zM1152.84 582.98 a6.5 6.5 0 1 0 13 0 a6.5 6.5 0 1 0 -13 0zM1096.54 615.48 a6.5 6.5 0 1 0 13 0 a6.5 6.5 0 1 0 -13 0zM1040.25 582.98 a6.5 6.5 0 1 0 13 0 a6.5 6.5 0 1 0 -13 0zM1040.25 517.98 a6.5 6.5 0 1 0 13 0 a6.5 6.5 0 1 0 -13 0zM1096.54 680.48 a6.5 6.5 0 1 0 13 0 a6.5 6.5 0 1 0 -13 0zM1040.25 712.98 a6.5 6.5 0 1 0 13 0 a6.5 6.5 0 1 0 -13 0zM1040.25 777.98 a6.5 6.5 0 1 0 13 0 a6.5 6.5 0 1 0 -13 0zM1096.54 810.48 a6.5 6.5 0 1 0 13 0 a6.5 6.5 0 1 0 -13 0zM1096.54 875.48 a6.5 6.5 0 1 0 13 0 a6.5 6.5 0 1 0 -13 0zM1040.25 907.98 a6.5 6.5 0 1 0 13 0 a6.5 6.5 0 1 0 -13 0zM983.96 875.48 a6.5 6.5 0 1 0 13 0 a6.5 6.5 0 1 0 -13 0zM983.96 810.48 a6.5 6.5 0 1 0 13 0 a6.5 6.5 0 1 0 -13 0z" fill="url(&quot;#SvgjsLinearGradient1239&quot;)"></path></g><defs><mask id="SvgjsMask1236"><rect width="1125" height="750" fill="#ffffff"></rect></mask><linearGradient x1="91.67%" y1="-12.5%" x2="8.33%" y2="112.5%" gradientUnits="userSpaceOnUse" id="SvgjsLinearGradient1237"><stop stop-color="rgba(244, 144, 41, 1)" offset="0"></stop><stop stop-color="rgba(249, 101, 71, 1)" offset="1"></stop></linearGradient><linearGradient x1="93.7125" y1="-93.75" x2="1031.2875000000001" y2="843.75" gradientUnits="userSpaceOnUse" id="SvgjsLinearGradient1238"><stop stop-color="rgba(47, 46, 65, 1)" offset="0.02"></stop><stop stop-color="rgba(255, 211, 44, 0.28)" offset="1"></stop></linearGradient><linearGradient x1="93.7125" y1="-93.75" x2="1031.2875000000001" y2="843.75" gradientUnits="userSpaceOnUse" id="SvgjsLinearGradient1239"><stop stop-color="rgba(47, 46, 65, 1)" offset="0"></stop><stop stop-color="rgba(0, 0, 0, 0)" offset="1"></stop></linearGradient></defs></svg>