<svg xmlns="http://www.w3.org/2000/svg" version="1.1" xmlns:xlink="http://www.w3.org/1999/xlink" xmlns:svgjs="http://svgjs.dev/svgjs" width="1125" height="750" preserveAspectRatio="none" viewBox="0 0 1125 750"><g mask="url(&quot;#SvgjsMask1157&quot;)" fill="none"><rect width="1125" height="750" x="0" y="0" fill="url(&quot;#SvgjsLinearGradient1158&quot;)"></rect><use xlink:href="#SvgjsSymbol1165" x="0" y="0"></use><use xlink:href="#SvgjsSymbol1165" x="0" y="720"></use><use xlink:href="#SvgjsSymbol1165" x="720" y="0"></use><use xlink:href="#SvgjsSymbol1165" x="720" y="720"></use></g><defs><mask id="SvgjsMask1157"><rect width="1125" height="750" fill="#ffffff"></rect></mask><linearGradient x1="8.33%" y1="-12.5%" x2="91.67%" y2="112.5%" gradientUnits="userSpaceOnUse" id="SvgjsLinearGradient1158"><stop stop-color="rgba(244, 144, 41, 1)" offset="0"></stop><stop stop-color="rgba(249, 101, 71, 1)" offset="1"></stop></linearGradient><path d="M-1 0 a1 1 0 1 0 2 0 a1 1 0 1 0 -2 0z" id="SvgjsPath1163"></path><path d="M-3 0 a3 3 0 1 0 6 0 a3 3 0 1 0 -6 0z" id="SvgjsPath1161"></path><path d="M-5 0 a5 5 0 1 0 10 0 a5 5 0 1 0 -10 0z" id="SvgjsPath1159"></path><path d="M2 -2 L-2 2z" id="SvgjsPath1162"></path><path d="M6 -6 L-6 6z" id="SvgjsPath1160"></path><path d="M30 -30 L-30 30z" id="SvgjsPath1164"></path></defs><symbol id="SvgjsSymbol1165"><use xlink:href="#SvgjsPath1159" x="30" y="30" stroke="rgba(47, 46, 65, 1)"></use><use xlink:href="#SvgjsPath1160" x="30" y="90" stroke="rgba(47, 46, 65, 1)"></use><use xlink:href="#SvgjsPath1161" x="30" y="150" stroke="rgba(47, 46, 65, 1)"></use><use xlink:href="#SvgjsPath1162" x="30" y="210" stroke="rgba(47, 46, 65, 1)"></use><use xlink:href="#SvgjsPath1161" x="30" y="270" stroke="rgba(47, 46, 65, 1)"></use><use xlink:href="#SvgjsPath1162" x="30" y="330" stroke="rgba(47, 46, 65, 1)"></use><use xlink:href="#SvgjsPath1163" x="30" y="390" stroke="rgba(47, 46, 65, 1)"></use><use xlink:href="#SvgjsPath1163" x="30" y="450" stroke="rgba(47, 46, 65, 1)"></use><use xlink:href="#SvgjsPath1162" x="30" y="510" stroke="rgba(47, 46, 65, 1)"></use><use xlink:href="#SvgjsPath1160" x="30" y="570" stroke="rgba(47, 46, 65, 1)"></use><use xlink:href="#SvgjsPath1159" x="30" y="630" stroke="rgba(47, 46, 65, 1)"></use><use xlink:href="#SvgjsPath1160" x="30" y="690" stroke="rgba(47, 46, 65, 1)"></use><use xlink:href="#SvgjsPath1159" x="90" y="30" stroke="rgba(47, 46, 65, 1)"></use><use xlink:href="#SvgjsPath1160" x="90" y="90" stroke="rgba(47, 46, 65, 1)"></use><use xlink:href="#SvgjsPath1163" x="90" y="150" stroke="rgba(47, 46, 65, 1)"></use><use xlink:href="#SvgjsPath1162" x="90" y="210" stroke="rgba(47, 46, 65, 1)"></use><use xlink:href="#SvgjsPath1162" x="90" y="270" stroke="rgba(47, 46, 65, 1)"></use><use xlink:href="#SvgjsPath1161" x="90" y="330" stroke="rgba(47, 46, 65, 1)"></use><use xlink:href="#SvgjsPath1160" x="90" y="390" stroke="rgba(47, 46, 65, 1)"></use><use xlink:href="#SvgjsPath1161" x="90" y="450" stroke="rgba(47, 46, 65, 1)"></use><use xlink:href="#SvgjsPath1161" x="90" y="510" stroke="rgba(47, 46, 65, 1)"></use><use xlink:href="#SvgjsPath1159" x="90" y="570" stroke="rgba(47, 46, 65, 1)"></use><use xlink:href="#SvgjsPath1159" x="90" y="630" stroke="rgba(47, 46, 65, 1)"></use><use xlink:href="#SvgjsPath1162" x="90" y="690" stroke="rgba(47, 46, 65, 1)"></use><use xlink:href="#SvgjsPath1160" x="150" y="30" stroke="rgba(47, 46, 65, 1)"></use><use xlink:href="#SvgjsPath1161" x="150" y="90" stroke="rgba(47, 46, 65, 1)"></use><use xlink:href="#SvgjsPath1159" x="150" y="150" stroke="rgba(47, 46, 65, 1)"></use><use xlink:href="#SvgjsPath1161" x="150" y="210" stroke="rgba(47, 46, 65, 1)"></use><use xlink:href="#SvgjsPath1164" x="150" y="270" stroke="rgba(47, 46, 65, 1)" stroke-width="3"></use><use xlink:href="#SvgjsPath1162" x="150" y="330" stroke="rgba(47, 46, 65, 1)"></use><use xlink:href="#SvgjsPath1159" x="150" y="390" stroke="rgba(47, 46, 65, 1)"></use><use xlink:href="#SvgjsPath1159" x="150" y="450" stroke="rgba(47, 46, 65, 1)"></use><use xlink:href="#SvgjsPath1160" x="150" y="510" stroke="rgba(47, 46, 65, 1)"></use><use xlink:href="#SvgjsPath1160" x="150" y="570" stroke="rgba(47, 46, 65, 1)"></use><use xlink:href="#SvgjsPath1159" x="150" y="630" stroke="rgba(47, 46, 65, 1)"></use><use xlink:href="#SvgjsPath1159" x="150" y="690" stroke="rgba(47, 46, 65, 1)"></use><use xlink:href="#SvgjsPath1164" x="210" y="30" stroke="rgba(47, 46, 65, 1)" stroke-width="3"></use><use xlink:href="#SvgjsPath1162" x="210" y="90" stroke="rgba(47, 46, 65, 1)"></use><use xlink:href="#SvgjsPath1159" x="210" y="150" stroke="rgba(47, 46, 65, 1)"></use><use xlink:href="#SvgjsPath1159" x="210" y="210" stroke="rgba(47, 46, 65, 1)"></use><use xlink:href="#SvgjsPath1160" x="210" y="270" stroke="rgba(47, 46, 65, 1)"></use><use xlink:href="#SvgjsPath1160" x="210" y="330" stroke="rgba(47, 46, 65, 1)"></use><use xlink:href="#SvgjsPath1162" x="210" y="390" stroke="rgba(47, 46, 65, 1)"></use><use xlink:href="#SvgjsPath1162" x="210" y="450" stroke="rgba(47, 46, 65, 1)"></use><use xlink:href="#SvgjsPath1160" x="210" y="510" stroke="rgba(47, 46, 65, 1)"></use><use xlink:href="#SvgjsPath1162" x="210" y="570" stroke="rgba(47, 46, 65, 1)"></use><use xlink:href="#SvgjsPath1159" x="210" y="630" stroke="rgba(47, 46, 65, 1)"></use><use xlink:href="#SvgjsPath1160" x="210" y="690" stroke="rgba(47, 46, 65, 1)"></use><use xlink:href="#SvgjsPath1163" x="270" y="30" stroke="rgba(47, 46, 65, 1)"></use><use xlink:href="#SvgjsPath1162" x="270" y="90" stroke="rgba(47, 46, 65, 1)"></use><use xlink:href="#SvgjsPath1159" x="270" y="150" stroke="rgba(47, 46, 65, 1)"></use><use xlink:href="#SvgjsPath1159" x="270" y="210" stroke="rgba(47, 46, 65, 1)"></use><use xlink:href="#SvgjsPath1161" x="270" y="270" stroke="rgba(47, 46, 65, 1)"></use><use xlink:href="#SvgjsPath1159" x="270" y="330" stroke="rgba(47, 46, 65, 1)"></use><use xlink:href="#SvgjsPath1159" x="270" y="390" stroke="rgba(47, 46, 65, 1)"></use><use xlink:href="#SvgjsPath1160" x="270" y="450" stroke="rgba(47, 46, 65, 1)"></use><use xlink:href="#SvgjsPath1160" x="270" y="510" stroke="rgba(47, 46, 65, 1)"></use><use xlink:href="#SvgjsPath1160" x="270" y="570" stroke="rgba(47, 46, 65, 1)"></use><use xlink:href="#SvgjsPath1162" x="270" y="630" stroke="rgba(47, 46, 65, 1)"></use><use xlink:href="#SvgjsPath1159" x="270" y="690" stroke="rgba(47, 46, 65, 1)"></use><use xlink:href="#SvgjsPath1159" x="330" y="30" stroke="rgba(47, 46, 65, 1)"></use><use xlink:href="#SvgjsPath1163" x="330" y="90" stroke="rgba(47, 46, 65, 1)"></use><use xlink:href="#SvgjsPath1164" x="330" y="150" stroke="rgba(47, 46, 65, 1)" stroke-width="3"></use><use xlink:href="#SvgjsPath1160" x="330" y="210" stroke="rgba(47, 46, 65, 1)"></use><use xlink:href="#SvgjsPath1159" x="330" y="270" stroke="rgba(47, 46, 65, 1)"></use><use xlink:href="#SvgjsPath1160" x="330" y="330" stroke="rgba(47, 46, 65, 1)"></use><use xlink:href="#SvgjsPath1160" x="330" y="390" stroke="rgba(47, 46, 65, 1)"></use><use xlink:href="#SvgjsPath1159" x="330" y="450" stroke="rgba(47, 46, 65, 1)"></use><use xlink:href="#SvgjsPath1160" x="330" y="510" stroke="rgba(47, 46, 65, 1)"></use><use xlink:href="#SvgjsPath1161" x="330" y="570" stroke="rgba(47, 46, 65, 1)"></use><use xlink:href="#SvgjsPath1163" x="330" y="630" stroke="rgba(47, 46, 65, 1)"></use><use xlink:href="#SvgjsPath1160" x="330" y="690" stroke="rgba(47, 46, 65, 1)"></use><use xlink:href="#SvgjsPath1163" x="390" y="30" stroke="rgba(47, 46, 65, 1)"></use><use xlink:href="#SvgjsPath1163" x="390" y="90" stroke="rgba(47, 46, 65, 1)"></use><use xlink:href="#SvgjsPath1159" x="390" y="150" stroke="rgba(47, 46, 65, 1)"></use><use xlink:href="#SvgjsPath1160" x="390" y="210" stroke="rgba(47, 46, 65, 1)"></use><use xlink:href="#SvgjsPath1164" x="390" y="270" stroke="rgba(47, 46, 65, 1)" stroke-width="3"></use><use xlink:href="#SvgjsPath1159" x="390" y="330" stroke="rgba(47, 46, 65, 1)"></use><use xlink:href="#SvgjsPath1162" x="390" y="390" stroke="rgba(47, 46, 65, 1)"></use><use xlink:href="#SvgjsPath1159" x="390" y="450" stroke="rgba(47, 46, 65, 1)"></use><use xlink:href="#SvgjsPath1162" x="390" y="510" stroke="rgba(47, 46, 65, 1)"></use><use xlink:href="#SvgjsPath1162" x="390" y="570" stroke="rgba(47, 46, 65, 1)"></use><use xlink:href="#SvgjsPath1162" x="390" y="630" stroke="rgba(47, 46, 65, 1)"></use><use xlink:href="#SvgjsPath1161" x="390" y="690" stroke="rgba(47, 46, 65, 1)"></use><use xlink:href="#SvgjsPath1162" x="450" y="30" stroke="rgba(47, 46, 65, 1)"></use><use xlink:href="#SvgjsPath1160" x="450" y="90" stroke="rgba(47, 46, 65, 1)"></use><use xlink:href="#SvgjsPath1159" x="450" y="150" stroke="rgba(47, 46, 65, 1)"></use><use xlink:href="#SvgjsPath1159" x="450" y="210" stroke="rgba(47, 46, 65, 1)"></use><use xlink:href="#SvgjsPath1160" x="450" y="270" stroke="rgba(47, 46, 65, 1)"></use><use xlink:href="#SvgjsPath1163" x="450" y="330" stroke="rgba(47, 46, 65, 1)"></use><use xlink:href="#SvgjsPath1160" x="450" y="390" stroke="rgba(47, 46, 65, 1)"></use><use xlink:href="#SvgjsPath1160" x="450" y="450" stroke="rgba(47, 46, 65, 1)"></use><use xlink:href="#SvgjsPath1160" x="450" y="510" stroke="rgba(47, 46, 65, 1)"></use><use xlink:href="#SvgjsPath1163" x="450" y="570" stroke="rgba(47, 46, 65, 1)"></use><use xlink:href="#SvgjsPath1163" x="450" y="630" stroke="rgba(47, 46, 65, 1)"></use><use xlink:href="#SvgjsPath1159" x="450" y="690" stroke="rgba(47, 46, 65, 1)"></use><use xlink:href="#SvgjsPath1159" x="510" y="30" stroke="rgba(47, 46, 65, 1)"></use><use xlink:href="#SvgjsPath1161" x="510" y="90" stroke="rgba(47, 46, 65, 1)"></use><use xlink:href="#SvgjsPath1164" x="510" y="150" stroke="rgba(47, 46, 65, 1)" stroke-width="3"></use><use xlink:href="#SvgjsPath1162" x="510" y="210" stroke="rgba(47, 46, 65, 1)"></use><use xlink:href="#SvgjsPath1161" x="510" y="270" stroke="rgba(47, 46, 65, 1)"></use><use xlink:href="#SvgjsPath1163" x="510" y="330" stroke="rgba(47, 46, 65, 1)"></use><use xlink:href="#SvgjsPath1159" x="510" y="390" stroke="rgba(47, 46, 65, 1)"></use><use xlink:href="#SvgjsPath1160" x="510" y="450" stroke="rgba(47, 46, 65, 1)"></use><use xlink:href="#SvgjsPath1164" x="510" y="510" stroke="rgba(47, 46, 65, 1)" stroke-width="3"></use><use xlink:href="#SvgjsPath1164" x="510" y="570" stroke="rgba(47, 46, 65, 1)" stroke-width="3"></use><use xlink:href="#SvgjsPath1162" x="510" y="630" stroke="rgba(47, 46, 65, 1)"></use><use xlink:href="#SvgjsPath1161" x="510" y="690" stroke="rgba(47, 46, 65, 1)"></use><use xlink:href="#SvgjsPath1160" x="570" y="30" stroke="rgba(47, 46, 65, 1)"></use><use xlink:href="#SvgjsPath1160" x="570" y="90" stroke="rgba(47, 46, 65, 1)"></use><use xlink:href="#SvgjsPath1161" x="570" y="150" stroke="rgba(47, 46, 65, 1)"></use><use xlink:href="#SvgjsPath1159" x="570" y="210" stroke="rgba(47, 46, 65, 1)"></use><use xlink:href="#SvgjsPath1160" x="570" y="270" stroke="rgba(47, 46, 65, 1)"></use><use xlink:href="#SvgjsPath1161" x="570" y="330" stroke="rgba(47, 46, 65, 1)"></use><use xlink:href="#SvgjsPath1164" x="570" y="390" stroke="rgba(47, 46, 65, 1)" stroke-width="3"></use><use xlink:href="#SvgjsPath1159" x="570" y="450" stroke="rgba(47, 46, 65, 1)"></use><use xlink:href="#SvgjsPath1160" x="570" y="510" stroke="rgba(47, 46, 65, 1)"></use><use xlink:href="#SvgjsPath1162" x="570" y="570" stroke="rgba(47, 46, 65, 1)"></use><use xlink:href="#SvgjsPath1162" x="570" y="630" stroke="rgba(47, 46, 65, 1)"></use><use xlink:href="#SvgjsPath1159" x="570" y="690" stroke="rgba(47, 46, 65, 1)"></use><use xlink:href="#SvgjsPath1162" x="630" y="30" stroke="rgba(47, 46, 65, 1)"></use><use xlink:href="#SvgjsPath1160" x="630" y="90" stroke="rgba(47, 46, 65, 1)"></use><use xlink:href="#SvgjsPath1162" x="630" y="150" stroke="rgba(47, 46, 65, 1)"></use><use xlink:href="#SvgjsPath1159" x="630" y="210" stroke="rgba(47, 46, 65, 1)"></use><use xlink:href="#SvgjsPath1160" x="630" y="270" stroke="rgba(47, 46, 65, 1)"></use><use xlink:href="#SvgjsPath1162" x="630" y="330" stroke="rgba(47, 46, 65, 1)"></use><use xlink:href="#SvgjsPath1160" x="630" y="390" stroke="rgba(47, 46, 65, 1)"></use><use xlink:href="#SvgjsPath1159" x="630" y="450" stroke="rgba(47, 46, 65, 1)"></use><use xlink:href="#SvgjsPath1162" x="630" y="510" stroke="rgba(47, 46, 65, 1)"></use><use xlink:href="#SvgjsPath1162" x="630" y="570" stroke="rgba(47, 46, 65, 1)"></use><use xlink:href="#SvgjsPath1159" x="630" y="630" stroke="rgba(47, 46, 65, 1)"></use><use xlink:href="#SvgjsPath1161" x="630" y="690" stroke="rgba(47, 46, 65, 1)"></use><use xlink:href="#SvgjsPath1160" x="690" y="30" stroke="rgba(47, 46, 65, 1)"></use><use xlink:href="#SvgjsPath1161" x="690" y="90" stroke="rgba(47, 46, 65, 1)"></use><use xlink:href="#SvgjsPath1162" x="690" y="150" stroke="rgba(47, 46, 65, 1)"></use><use xlink:href="#SvgjsPath1159" x="690" y="210" stroke="rgba(47, 46, 65, 1)"></use><use xlink:href="#SvgjsPath1159" x="690" y="270" stroke="rgba(47, 46, 65, 1)"></use><use xlink:href="#SvgjsPath1159" x="690" y="330" stroke="rgba(47, 46, 65, 1)"></use><use xlink:href="#SvgjsPath1159" x="690" y="390" stroke="rgba(47, 46, 65, 1)"></use><use xlink:href="#SvgjsPath1160" x="690" y="450" stroke="rgba(47, 46, 65, 1)"></use><use xlink:href="#SvgjsPath1159" x="690" y="510" stroke="rgba(47, 46, 65, 1)"></use><use xlink:href="#SvgjsPath1161" x="690" y="570" stroke="rgba(47, 46, 65, 1)"></use><use xlink:href="#SvgjsPath1159" x="690" y="630" stroke="rgba(47, 46, 65, 1)"></use><use xlink:href="#SvgjsPath1162" x="690" y="690" stroke="rgba(47, 46, 65, 1)"></use></symbol></svg>