<svg xmlns="http://www.w3.org/2000/svg" version="1.1" xmlns:xlink="http://www.w3.org/1999/xlink" xmlns:svgjs="http://svgjs.dev/svgjs" width="1125" height="750" preserveAspectRatio="none" viewBox="0 0 1125 750"><g mask="url(&quot;#SvgjsMask1490&quot;)" fill="none"><rect width="1125" height="750" x="0" y="0" fill="url(&quot;#SvgjsLinearGradient1491&quot;)"></rect><use xlink:href="#SvgjsSymbol1498" x="0" y="0"></use><use xlink:href="#SvgjsSymbol1498" x="0" y="720"></use><use xlink:href="#SvgjsSymbol1498" x="720" y="0"></use><use xlink:href="#SvgjsSymbol1498" x="720" y="720"></use></g><defs><mask id="SvgjsMask1490"><rect width="1125" height="750" fill="#ffffff"></rect></mask><linearGradient x1="50%" y1="0%" x2="50%" y2="100%" gradientUnits="userSpaceOnUse" id="SvgjsLinearGradient1491"><stop stop-color="rgba(244, 144, 41, 1)" offset="0"></stop><stop stop-color="rgba(249, 101, 71, 1)" offset="1"></stop></linearGradient><path d="M-1 0 a1 1 0 1 0 2 0 a1 1 0 1 0 -2 0z" id="SvgjsPath1497"></path><path d="M-3 0 a3 3 0 1 0 6 0 a3 3 0 1 0 -6 0z" id="SvgjsPath1494"></path><path d="M-5 0 a5 5 0 1 0 10 0 a5 5 0 1 0 -10 0z" id="SvgjsPath1492"></path><path d="M2 -2 L-2 2z" id="SvgjsPath1495"></path><path d="M6 -6 L-6 6z" id="SvgjsPath1493"></path><path d="M30 -30 L-30 30z" id="SvgjsPath1496"></path></defs><symbol id="SvgjsSymbol1498"><use xlink:href="#SvgjsPath1492" x="30" y="30" stroke="rgba(47, 46, 65, 1)"></use><use xlink:href="#SvgjsPath1493" x="30" y="90" stroke="rgba(47, 46, 65, 1)"></use><use xlink:href="#SvgjsPath1492" x="30" y="150" stroke="rgba(47, 46, 65, 1)"></use><use xlink:href="#SvgjsPath1494" x="30" y="210" stroke="rgba(47, 46, 65, 1)"></use><use xlink:href="#SvgjsPath1492" x="30" y="270" stroke="rgba(47, 46, 65, 1)"></use><use xlink:href="#SvgjsPath1495" x="30" y="330" stroke="rgba(47, 46, 65, 1)"></use><use xlink:href="#SvgjsPath1493" x="30" y="390" stroke="rgba(47, 46, 65, 1)"></use><use xlink:href="#SvgjsPath1493" x="30" y="450" stroke="rgba(47, 46, 65, 1)"></use><use xlink:href="#SvgjsPath1496" x="30" y="510" stroke="rgba(47, 46, 65, 1)" stroke-width="3"></use><use xlink:href="#SvgjsPath1493" x="30" y="570" stroke="rgba(47, 46, 65, 1)"></use><use xlink:href="#SvgjsPath1497" x="30" y="630" stroke="rgba(47, 46, 65, 1)"></use><use xlink:href="#SvgjsPath1495" x="30" y="690" stroke="rgba(47, 46, 65, 1)"></use><use xlink:href="#SvgjsPath1492" x="90" y="30" stroke="rgba(47, 46, 65, 1)"></use><use xlink:href="#SvgjsPath1495" x="90" y="90" stroke="rgba(47, 46, 65, 1)"></use><use xlink:href="#SvgjsPath1497" x="90" y="150" stroke="rgba(47, 46, 65, 1)"></use><use xlink:href="#SvgjsPath1493" x="90" y="210" stroke="rgba(47, 46, 65, 1)"></use><use xlink:href="#SvgjsPath1493" x="90" y="270" stroke="rgba(47, 46, 65, 1)"></use><use xlink:href="#SvgjsPath1494" x="90" y="330" stroke="rgba(47, 46, 65, 1)"></use><use xlink:href="#SvgjsPath1496" x="90" y="390" stroke="rgba(47, 46, 65, 1)" stroke-width="3"></use><use xlink:href="#SvgjsPath1493" x="90" y="450" stroke="rgba(47, 46, 65, 1)"></use><use xlink:href="#SvgjsPath1492" x="90" y="510" stroke="rgba(47, 46, 65, 1)"></use><use xlink:href="#SvgjsPath1494" x="90" y="570" stroke="rgba(47, 46, 65, 1)"></use><use xlink:href="#SvgjsPath1492" x="90" y="630" stroke="rgba(47, 46, 65, 1)"></use><use xlink:href="#SvgjsPath1492" x="90" y="690" stroke="rgba(47, 46, 65, 1)"></use><use xlink:href="#SvgjsPath1497" x="150" y="30" stroke="rgba(47, 46, 65, 1)"></use><use xlink:href="#SvgjsPath1495" x="150" y="90" stroke="rgba(47, 46, 65, 1)"></use><use xlink:href="#SvgjsPath1492" x="150" y="150" stroke="rgba(47, 46, 65, 1)"></use><use xlink:href="#SvgjsPath1494" x="150" y="210" stroke="rgba(47, 46, 65, 1)"></use><use xlink:href="#SvgjsPath1493" x="150" y="270" stroke="rgba(47, 46, 65, 1)"></use><use xlink:href="#SvgjsPath1496" x="150" y="330" stroke="rgba(47, 46, 65, 1)" stroke-width="3"></use><use xlink:href="#SvgjsPath1495" x="150" y="390" stroke="rgba(47, 46, 65, 1)"></use><use xlink:href="#SvgjsPath1494" x="150" y="450" stroke="rgba(47, 46, 65, 1)"></use><use xlink:href="#SvgjsPath1493" x="150" y="510" stroke="rgba(47, 46, 65, 1)"></use><use xlink:href="#SvgjsPath1493" x="150" y="570" stroke="rgba(47, 46, 65, 1)"></use><use xlink:href="#SvgjsPath1493" x="150" y="630" stroke="rgba(47, 46, 65, 1)"></use><use xlink:href="#SvgjsPath1493" x="150" y="690" stroke="rgba(47, 46, 65, 1)"></use><use xlink:href="#SvgjsPath1492" x="210" y="30" stroke="rgba(47, 46, 65, 1)"></use><use xlink:href="#SvgjsPath1497" x="210" y="90" stroke="rgba(47, 46, 65, 1)"></use><use xlink:href="#SvgjsPath1492" x="210" y="150" stroke="rgba(47, 46, 65, 1)"></use><use xlink:href="#SvgjsPath1494" x="210" y="210" stroke="rgba(47, 46, 65, 1)"></use><use xlink:href="#SvgjsPath1492" x="210" y="270" stroke="rgba(47, 46, 65, 1)"></use><use xlink:href="#SvgjsPath1492" x="210" y="330" stroke="rgba(47, 46, 65, 1)"></use><use xlink:href="#SvgjsPath1497" x="210" y="390" stroke="rgba(47, 46, 65, 1)"></use><use xlink:href="#SvgjsPath1493" x="210" y="450" stroke="rgba(47, 46, 65, 1)"></use><use xlink:href="#SvgjsPath1492" x="210" y="510" stroke="rgba(47, 46, 65, 1)"></use><use xlink:href="#SvgjsPath1492" x="210" y="570" stroke="rgba(47, 46, 65, 1)"></use><use xlink:href="#SvgjsPath1492" x="210" y="630" stroke="rgba(47, 46, 65, 1)"></use><use xlink:href="#SvgjsPath1494" x="210" y="690" stroke="rgba(47, 46, 65, 1)"></use><use xlink:href="#SvgjsPath1493" x="270" y="30" stroke="rgba(47, 46, 65, 1)"></use><use xlink:href="#SvgjsPath1493" x="270" y="90" stroke="rgba(47, 46, 65, 1)"></use><use xlink:href="#SvgjsPath1495" x="270" y="150" stroke="rgba(47, 46, 65, 1)"></use><use xlink:href="#SvgjsPath1493" x="270" y="210" stroke="rgba(47, 46, 65, 1)"></use><use xlink:href="#SvgjsPath1492" x="270" y="270" stroke="rgba(47, 46, 65, 1)"></use><use xlink:href="#SvgjsPath1492" x="270" y="330" stroke="rgba(47, 46, 65, 1)"></use><use xlink:href="#SvgjsPath1492" x="270" y="390" stroke="rgba(47, 46, 65, 1)"></use><use xlink:href="#SvgjsPath1496" x="270" y="450" stroke="rgba(47, 46, 65, 1)" stroke-width="3"></use><use xlink:href="#SvgjsPath1492" x="270" y="510" stroke="rgba(47, 46, 65, 1)"></use><use xlink:href="#SvgjsPath1493" x="270" y="570" stroke="rgba(47, 46, 65, 1)"></use><use xlink:href="#SvgjsPath1492" x="270" y="630" stroke="rgba(47, 46, 65, 1)"></use><use xlink:href="#SvgjsPath1492" x="270" y="690" stroke="rgba(47, 46, 65, 1)"></use><use xlink:href="#SvgjsPath1496" x="330" y="30" stroke="rgba(47, 46, 65, 1)" stroke-width="3"></use><use xlink:href="#SvgjsPath1493" x="330" y="90" stroke="rgba(47, 46, 65, 1)"></use><use xlink:href="#SvgjsPath1493" x="330" y="150" stroke="rgba(47, 46, 65, 1)"></use><use xlink:href="#SvgjsPath1493" x="330" y="210" stroke="rgba(47, 46, 65, 1)"></use><use xlink:href="#SvgjsPath1493" x="330" y="270" stroke="rgba(47, 46, 65, 1)"></use><use xlink:href="#SvgjsPath1493" x="330" y="330" stroke="rgba(47, 46, 65, 1)"></use><use xlink:href="#SvgjsPath1496" x="330" y="390" stroke="rgba(47, 46, 65, 1)" stroke-width="3"></use><use xlink:href="#SvgjsPath1495" x="330" y="450" stroke="rgba(47, 46, 65, 1)"></use><use xlink:href="#SvgjsPath1492" x="330" y="510" stroke="rgba(47, 46, 65, 1)"></use><use xlink:href="#SvgjsPath1495" x="330" y="570" stroke="rgba(47, 46, 65, 1)"></use><use xlink:href="#SvgjsPath1497" x="330" y="630" stroke="rgba(47, 46, 65, 1)"></use><use xlink:href="#SvgjsPath1492" x="330" y="690" stroke="rgba(47, 46, 65, 1)"></use><use xlink:href="#SvgjsPath1495" x="390" y="30" stroke="rgba(47, 46, 65, 1)"></use><use xlink:href="#SvgjsPath1492" x="390" y="90" stroke="rgba(47, 46, 65, 1)"></use><use xlink:href="#SvgjsPath1497" x="390" y="150" stroke="rgba(47, 46, 65, 1)"></use><use xlink:href="#SvgjsPath1496" x="390" y="210" stroke="rgba(47, 46, 65, 1)" stroke-width="3"></use><use xlink:href="#SvgjsPath1495" x="390" y="270" stroke="rgba(47, 46, 65, 1)"></use><use xlink:href="#SvgjsPath1493" x="390" y="330" stroke="rgba(47, 46, 65, 1)"></use><use xlink:href="#SvgjsPath1493" x="390" y="390" stroke="rgba(47, 46, 65, 1)"></use><use xlink:href="#SvgjsPath1494" x="390" y="450" stroke="rgba(47, 46, 65, 1)"></use><use xlink:href="#SvgjsPath1495" x="390" y="510" stroke="rgba(47, 46, 65, 1)"></use><use xlink:href="#SvgjsPath1493" x="390" y="570" stroke="rgba(47, 46, 65, 1)"></use><use xlink:href="#SvgjsPath1494" x="390" y="630" stroke="rgba(47, 46, 65, 1)"></use><use xlink:href="#SvgjsPath1492" x="390" y="690" stroke="rgba(47, 46, 65, 1)"></use><use xlink:href="#SvgjsPath1497" x="450" y="30" stroke="rgba(47, 46, 65, 1)"></use><use xlink:href="#SvgjsPath1495" x="450" y="90" stroke="rgba(47, 46, 65, 1)"></use><use xlink:href="#SvgjsPath1493" x="450" y="150" stroke="rgba(47, 46, 65, 1)"></use><use xlink:href="#SvgjsPath1493" x="450" y="210" stroke="rgba(47, 46, 65, 1)"></use><use xlink:href="#SvgjsPath1493" x="450" y="270" stroke="rgba(47, 46, 65, 1)"></use><use xlink:href="#SvgjsPath1495" x="450" y="330" stroke="rgba(47, 46, 65, 1)"></use><use xlink:href="#SvgjsPath1494" x="450" y="390" stroke="rgba(47, 46, 65, 1)"></use><use xlink:href="#SvgjsPath1492" x="450" y="450" stroke="rgba(47, 46, 65, 1)"></use><use xlink:href="#SvgjsPath1497" x="450" y="510" stroke="rgba(47, 46, 65, 1)"></use><use xlink:href="#SvgjsPath1493" x="450" y="570" stroke="rgba(47, 46, 65, 1)"></use><use xlink:href="#SvgjsPath1492" x="450" y="630" stroke="rgba(47, 46, 65, 1)"></use><use xlink:href="#SvgjsPath1494" x="450" y="690" stroke="rgba(47, 46, 65, 1)"></use><use xlink:href="#SvgjsPath1493" x="510" y="30" stroke="rgba(47, 46, 65, 1)"></use><use xlink:href="#SvgjsPath1493" x="510" y="90" stroke="rgba(47, 46, 65, 1)"></use><use xlink:href="#SvgjsPath1497" x="510" y="150" stroke="rgba(47, 46, 65, 1)"></use><use xlink:href="#SvgjsPath1495" x="510" y="210" stroke="rgba(47, 46, 65, 1)"></use><use xlink:href="#SvgjsPath1493" x="510" y="270" stroke="rgba(47, 46, 65, 1)"></use><use xlink:href="#SvgjsPath1497" x="510" y="330" stroke="rgba(47, 46, 65, 1)"></use><use xlink:href="#SvgjsPath1496" x="510" y="390" stroke="rgba(47, 46, 65, 1)" stroke-width="3"></use><use xlink:href="#SvgjsPath1492" x="510" y="450" stroke="rgba(47, 46, 65, 1)"></use><use xlink:href="#SvgjsPath1495" x="510" y="510" stroke="rgba(47, 46, 65, 1)"></use><use xlink:href="#SvgjsPath1494" x="510" y="570" stroke="rgba(47, 46, 65, 1)"></use><use xlink:href="#SvgjsPath1497" x="510" y="630" stroke="rgba(47, 46, 65, 1)"></use><use xlink:href="#SvgjsPath1493" x="510" y="690" stroke="rgba(47, 46, 65, 1)"></use><use xlink:href="#SvgjsPath1493" x="570" y="30" stroke="rgba(47, 46, 65, 1)"></use><use xlink:href="#SvgjsPath1495" x="570" y="90" stroke="rgba(47, 46, 65, 1)"></use><use xlink:href="#SvgjsPath1494" x="570" y="150" stroke="rgba(47, 46, 65, 1)"></use><use xlink:href="#SvgjsPath1493" x="570" y="210" stroke="rgba(47, 46, 65, 1)"></use><use xlink:href="#SvgjsPath1495" x="570" y="270" stroke="rgba(47, 46, 65, 1)"></use><use xlink:href="#SvgjsPath1495" x="570" y="330" stroke="rgba(47, 46, 65, 1)"></use><use xlink:href="#SvgjsPath1495" x="570" y="390" stroke="rgba(47, 46, 65, 1)"></use><use xlink:href="#SvgjsPath1493" x="570" y="450" stroke="rgba(47, 46, 65, 1)"></use><use xlink:href="#SvgjsPath1493" x="570" y="510" stroke="rgba(47, 46, 65, 1)"></use><use xlink:href="#SvgjsPath1496" x="570" y="570" stroke="rgba(47, 46, 65, 1)" stroke-width="3"></use><use xlink:href="#SvgjsPath1493" x="570" y="630" stroke="rgba(47, 46, 65, 1)"></use><use xlink:href="#SvgjsPath1497" x="570" y="690" stroke="rgba(47, 46, 65, 1)"></use><use xlink:href="#SvgjsPath1497" x="630" y="30" stroke="rgba(47, 46, 65, 1)"></use><use xlink:href="#SvgjsPath1495" x="630" y="90" stroke="rgba(47, 46, 65, 1)"></use><use xlink:href="#SvgjsPath1492" x="630" y="150" stroke="rgba(47, 46, 65, 1)"></use><use xlink:href="#SvgjsPath1494" x="630" y="210" stroke="rgba(47, 46, 65, 1)"></use><use xlink:href="#SvgjsPath1497" x="630" y="270" stroke="rgba(47, 46, 65, 1)"></use><use xlink:href="#SvgjsPath1493" x="630" y="330" stroke="rgba(47, 46, 65, 1)"></use><use xlink:href="#SvgjsPath1494" x="630" y="390" stroke="rgba(47, 46, 65, 1)"></use><use xlink:href="#SvgjsPath1492" x="630" y="450" stroke="rgba(47, 46, 65, 1)"></use><use xlink:href="#SvgjsPath1493" x="630" y="510" stroke="rgba(47, 46, 65, 1)"></use><use xlink:href="#SvgjsPath1496" x="630" y="570" stroke="rgba(47, 46, 65, 1)" stroke-width="3"></use><use xlink:href="#SvgjsPath1493" x="630" y="630" stroke="rgba(47, 46, 65, 1)"></use><use xlink:href="#SvgjsPath1493" x="630" y="690" stroke="rgba(47, 46, 65, 1)"></use><use xlink:href="#SvgjsPath1493" x="690" y="30" stroke="rgba(47, 46, 65, 1)"></use><use xlink:href="#SvgjsPath1494" x="690" y="90" stroke="rgba(47, 46, 65, 1)"></use><use xlink:href="#SvgjsPath1494" x="690" y="150" stroke="rgba(47, 46, 65, 1)"></use><use xlink:href="#SvgjsPath1493" x="690" y="210" stroke="rgba(47, 46, 65, 1)"></use><use xlink:href="#SvgjsPath1494" x="690" y="270" stroke="rgba(47, 46, 65, 1)"></use><use xlink:href="#SvgjsPath1493" x="690" y="330" stroke="rgba(47, 46, 65, 1)"></use><use xlink:href="#SvgjsPath1492" x="690" y="390" stroke="rgba(47, 46, 65, 1)"></use><use xlink:href="#SvgjsPath1493" x="690" y="450" stroke="rgba(47, 46, 65, 1)"></use><use xlink:href="#SvgjsPath1493" x="690" y="510" stroke="rgba(47, 46, 65, 1)"></use><use xlink:href="#SvgjsPath1495" x="690" y="570" stroke="rgba(47, 46, 65, 1)"></use><use xlink:href="#SvgjsPath1493" x="690" y="630" stroke="rgba(47, 46, 65, 1)"></use><use xlink:href="#SvgjsPath1492" x="690" y="690" stroke="rgba(47, 46, 65, 1)"></use></symbol></svg>