<svg xmlns="http://www.w3.org/2000/svg" version="1.1" xmlns:xlink="http://www.w3.org/1999/xlink" xmlns:svgjs="http://svgjs.dev/svgjs" width="1125" height="750" preserveAspectRatio="none" viewBox="0 0 1125 750"><g mask="url(&quot;#SvgjsMask1002&quot;)" fill="none"><rect width="1125" height="750" x="0" y="0" fill="url(&quot;#SvgjsLinearGradient1003&quot;)"></rect><path d="M721.37 367.8a21.26 21.26 0 1 0-19.28-37.9z" stroke="rgba(38, 177, 164, 1)"></path><path d="M615.62 519.41L629.57 519.41L629.57 538.64L615.62 538.64z" stroke="rgba(19, 22, 62, 1)"></path><path d="M70.73 549.68L91.15 549.68L91.15 570.1L70.73 570.1z" fill="rgba(31, 30, 37, 1)"></path><path d="M346.05 396.08a12.58 12.58 0 1 0 7.62 23.98z" stroke="rgba(38, 177, 164, 1)"></path><path d="M144.2 246.72L202.05 246.72L202.05 308.63L144.2 308.63z" fill="rgba(38, 177, 164, 1)"></path><path d="M510.13 433.88a29.06 29.06 0 1 0 55.01 18.76z" stroke="rgba(38, 177, 164, 1)"></path><path d="M665.69 144.49a30.16 30.16 0 1 0-38.11-46.76z" stroke="rgba(38, 177, 164, 1)"></path><path d="M973.28 452.72L981.71 452.72L981.71 493.26L973.28 493.26z" fill="rgba(38, 177, 164, 1)"></path><path d="M937.29 160.33L980.9 160.33L980.9 203.94L937.29 203.94z" fill="rgba(38, 177, 164, 1)"></path><path d="M98.69 148.96L167.4 148.96L167.4 170.14L98.69 170.14z" stroke="rgba(246, 125, 56, 1)"></path><path d="M609.67 735.97 a24.81 24.81 0 1 0 49.62 0 a24.81 24.81 0 1 0 -49.62 0z" stroke="rgba(31, 30, 37, 1)"></path><path d="M857.34 191.32 a48.16 48.16 0 1 0 96.32 0 a48.16 48.16 0 1 0 -96.32 0z" stroke="rgba(19, 22, 62, 1)"></path><path d="M144.12 105.08 a59.07 59.07 0 1 0 118.14 0 a59.07 59.07 0 1 0 -118.14 0z" stroke="rgba(31, 30, 37, 1)"></path><path d="M445.06 596.13L487.52 596.13L487.52 638.59L445.06 638.59z" stroke="rgba(19, 22, 62, 1)"></path><path d="M859.28 483.13 a69.86 69.86 0 1 0 139.72 0 a69.86 69.86 0 1 0 -139.72 0z" fill="rgba(38, 177, 164, 1)"></path><path d="M635.68 533.07a54.95 54.95 0 1 0 35.16-104.12z" stroke="rgba(38, 177, 164, 1)"></path><path d="M1025.14 334.39L1074.05 334.39L1074.05 383.3L1025.14 383.3z" stroke="rgba(31, 30, 37, 1)"></path><path d="M820.42 476.7 a14.61 14.61 0 1 0 29.22 0 a14.61 14.61 0 1 0 -29.22 0z" stroke="rgba(31, 30, 37, 1)"></path><path d="M954.69 696.19L1022.74 696.19L1022.74 764.24L954.69 764.24z" fill="rgba(19, 22, 62, 1)"></path></g><defs><mask id="SvgjsMask1002"><rect width="1125" height="750" fill="#ffffff"></rect></mask><linearGradient x1="50%" y1="100%" x2="50%" y2="0%" gradientUnits="userSpaceOnUse" id="SvgjsLinearGradient1003"><stop stop-color="rgba(249, 101, 71, 1)" offset="0"></stop><stop stop-color="rgba(244, 144, 41, 1)" offset="1"></stop></linearGradient></defs></svg>