<svg xmlns="http://www.w3.org/2000/svg" version="1.1" xmlns:xlink="http://www.w3.org/1999/xlink" xmlns:svgjs="http://svgjs.dev/svgjs" width="1125" height="750" preserveAspectRatio="none" viewBox="0 0 1125 750"><g mask="url(&quot;#SvgjsMask1012&quot;)" fill="none"><rect width="1125" height="750" x="0" y="0" fill="url(&quot;#SvgjsLinearGradient1013&quot;)"></rect><path d="M349.16 728.61L414.48 728.61L414.48 736.86L349.16 736.86z" stroke="rgba(246, 125, 56, 1)"></path><path d="M748.49 653.3a7.65 7.65 0 1 0 2.2-15.14z" fill="rgba(38, 177, 164, 1)"></path><path d="M1049.97 287.07 a10.75 10.75 0 1 0 21.5 0 a10.75 10.75 0 1 0 -21.5 0z" stroke="rgba(19, 22, 62, 1)"></path><path d="M1074.75 2.48L1092.76 2.48L1092.76 20.49L1074.75 20.49z" stroke="rgba(19, 22, 62, 1)"></path><path d="M125.42 522.65 a44.97 44.97 0 1 0 89.94 0 a44.97 44.97 0 1 0 -89.94 0z" fill="rgba(31, 30, 37, 1)"></path><path d="M395.38 240.92 a19.91 19.91 0 1 0 39.82 0 a19.91 19.91 0 1 0 -39.82 0z" stroke="rgba(38, 177, 164, 1)"></path><path d="M750.16 407.64L813.08 407.64L813.08 471.14L750.16 471.14z" fill="rgba(246, 125, 56, 1)"></path><path d="M601.69 410.22L662.33 410.22L662.33 447.64L601.69 447.64z" stroke="rgba(246, 125, 56, 1)"></path><path d="M555.67 630.94a32.44 32.44 0 1 0-45.71 46.04z" stroke="rgba(38, 177, 164, 1)"></path><path d="M997.85-29.64a39.5 39.5 0 1 0 39.08 68.65z" stroke="rgba(31, 30, 37, 1)"></path><path d="M954.44 102.5L999.52 102.5L999.52 147.58L954.44 147.58z" fill="rgba(38, 177, 164, 1)"></path><path d="M106.71 61.72a66.49 66.49 0 1 0-131.88-17.03z" fill="rgba(38, 177, 164, 1)"></path><path d="M1004.83 500.58 a40 40 0 1 0 80 0 a40 40 0 1 0 -80 0z" stroke="rgba(19, 22, 62, 1)"></path><path d="M755.93 76.64L819.35 76.64L819.35 140.06L755.93 140.06z" stroke="rgba(19, 22, 62, 1)"></path><path d="M208.77 728.01a24.86 24.86 0 1 0-43.97 23.22z" fill="rgba(38, 177, 164, 1)"></path><path d="M549.86 692.75a64.64 64.64 0 1 0-93.96-88.78z" fill="rgba(38, 177, 164, 1)"></path><path d="M45.56 29.35L75.97 29.35L75.97 59.76L45.56 59.76z" fill="rgba(19, 22, 62, 1)"></path><path d="M750 582.85L785.89 582.85L785.89 618.74L750 618.74z" fill="rgba(19, 22, 62, 1)"></path><path d="M297.46 58.09L298.45 58.09L298.45 59.08L297.46 59.08z" stroke="rgba(19, 22, 62, 1)"></path></g><defs><mask id="SvgjsMask1012"><rect width="1125" height="750" fill="#ffffff"></rect></mask><linearGradient x1="91.67%" y1="-12.5%" x2="8.33%" y2="112.5%" gradientUnits="userSpaceOnUse" id="SvgjsLinearGradient1013"><stop stop-color="rgba(249, 101, 71, 1)" offset="0"></stop><stop stop-color="rgba(244, 144, 41, 1)" offset="1"></stop></linearGradient></defs></svg>