<svg xmlns="http://www.w3.org/2000/svg" version="1.1" xmlns:xlink="http://www.w3.org/1999/xlink" xmlns:svgjs="http://svgjs.dev/svgjs" width="1125" height="750" preserveAspectRatio="none" viewBox="0 0 1125 750"><g mask="url(&quot;#SvgjsMask1020&quot;)" fill="none"><rect width="1125" height="750" x="0" y="0" fill="url(&quot;#SvgjsLinearGradient1021&quot;)"></rect><path d="M67.94 622.05 a34.82 34.82 0 1 0 69.64 0 a34.82 34.82 0 1 0 -69.64 0z" fill="rgba(31, 30, 37, 1)"></path><path d="M107.73 410.7a11.97 11.97 0 1 0-13.57 19.73z" stroke="rgba(31, 30, 37, 1)"></path><path d="M842.28 474.83a12 12 0 1 0 23.86-2.6z" fill="rgba(19, 22, 62, 1)"></path><path d="M383.42 605.31L436.92 605.31L436.92 661.78L383.42 661.78z" stroke="rgba(246, 125, 56, 1)"></path><path d="M631.75 210.53L658.68 210.53L658.68 259.28L631.75 259.28z" fill="rgba(19, 22, 62, 1)"></path><path d="M641.39 612.33L686.08 612.33L686.08 623.4L641.39 623.4z" stroke="rgba(246, 125, 56, 1)"></path><path d="M444.68 346.44 a62.77 62.77 0 1 0 125.54 0 a62.77 62.77 0 1 0 -125.54 0z" fill="rgba(246, 125, 56, 1)"></path><path d="M833.39 529.91a40.61 40.61 0 1 0 72.96-35.7z" fill="rgba(38, 177, 164, 1)"></path><path d="M516.88 48.01 a61.67 61.67 0 1 0 123.34 0 a61.67 61.67 0 1 0 -123.34 0z" fill="rgba(31, 30, 37, 1)"></path><path d="M542.53 314.26L615.73 314.26L615.73 356.71L542.53 356.71z" stroke="rgba(38, 177, 164, 1)"></path><path d="M87.64 525.04a55.67 55.67 0 1 0-108.21 26.23z" fill="rgba(246, 125, 56, 1)"></path><path d="M976.01 663.32L1005.25 663.32L1005.25 692.56L976.01 692.56z" fill="rgba(246, 125, 56, 1)"></path><path d="M992.94 605.99 a26.6 26.6 0 1 0 53.2 0 a26.6 26.6 0 1 0 -53.2 0z" fill="rgba(31, 30, 37, 1)"></path><path d="M175.82 354.47L180.81 354.47L180.81 377.92L175.82 377.92z" stroke="rgba(31, 30, 37, 1)"></path><path d="M504.94 345.19L517.19 345.19L517.19 357.44L504.94 357.44z" fill="rgba(246, 125, 56, 1)"></path><path d="M320.17 383.83a18.62 18.62 0 1 0 15.83-33.71z" stroke="rgba(31, 30, 37, 1)"></path><path d="M775.52 724.63a19.28 19.28 0 1 0-30.84-23.13z" fill="rgba(38, 177, 164, 1)"></path><path d="M1044.67 238.76L1097.22 238.76L1097.22 291.31L1044.67 291.31z" fill="rgba(19, 22, 62, 1)"></path><path d="M737.43 370.36L762.99 370.36L762.99 395.92L737.43 395.92z" stroke="rgba(38, 177, 164, 1)"></path></g><defs><mask id="SvgjsMask1020"><rect width="1125" height="750" fill="#ffffff"></rect></mask><linearGradient x1="91.67%" y1="112.5%" x2="8.33%" y2="-12.5%" gradientUnits="userSpaceOnUse" id="SvgjsLinearGradient1021"><stop stop-color="rgba(249, 101, 71, 1)" offset="0"></stop><stop stop-color="rgba(244, 144, 41, 1)" offset="1"></stop></linearGradient></defs></svg>