<svg xmlns="http://www.w3.org/2000/svg" version="1.1" xmlns:xlink="http://www.w3.org/1999/xlink" xmlns:svgjs="http://svgjs.dev/svgjs" width="1125" height="750" preserveAspectRatio="none" viewBox="0 0 1125 750"><g mask="url(&quot;#SvgjsMask1022&quot;)" fill="none"><rect width="1125" height="750" x="0" y="0" fill="url(&quot;#SvgjsLinearGradient1023&quot;)"></rect><path d="M918.9 420.36L924.27 420.36L924.27 425.73L918.9 425.73z" stroke="rgba(19, 22, 62, 1)"></path><path d="M808.61 125.93 a59.5 59.5 0 1 0 119 0 a59.5 59.5 0 1 0 -119 0z" fill="rgba(31, 30, 37, 1)"></path><path d="M189.01 686.78L250.51 686.78L250.51 749.72L189.01 749.72z" stroke="rgba(31, 30, 37, 1)"></path><path d="M779.23 430.05L819.73 430.05L819.73 435.93L779.23 435.93z" fill="rgba(246, 125, 56, 1)"></path><path d="M604.63 277.41 a34.49 34.49 0 1 0 68.98 0 a34.49 34.49 0 1 0 -68.98 0z" stroke="rgba(246, 125, 56, 1)"></path><path d="M43 202.54L106.45 202.54L106.45 265.99L43 265.99z" fill="rgba(246, 125, 56, 1)"></path><path d="M1070.15 746.87 a33.39 33.39 0 1 0 66.78 0 a33.39 33.39 0 1 0 -66.78 0z" fill="rgba(246, 125, 56, 1)"></path><path d="M394.52 155.71a20.96 20.96 0 1 0-38.69-16.13z" stroke="rgba(246, 125, 56, 1)"></path><path d="M819.82 25.9 a15.37 15.37 0 1 0 30.74 0 a15.37 15.37 0 1 0 -30.74 0z" stroke="rgba(19, 22, 62, 1)"></path><path d="M1001.42 318.31L1033.81 318.31L1033.81 345.99L1001.42 345.99z" fill="rgba(31, 30, 37, 1)"></path><path d="M819.66 625.83L883.5 625.83L883.5 689.67L819.66 689.67z" fill="rgba(246, 125, 56, 1)"></path><path d="M831.63 159.16L887.5 159.16L887.5 229.46L831.63 229.46z" fill="rgba(38, 177, 164, 1)"></path><path d="M885.69 376.78L887.37 376.78L887.37 378.46L885.69 378.46z" stroke="rgba(246, 125, 56, 1)"></path><path d="M548.94 716.9a57.52 57.52 0 1 0 112.8-22.56z" stroke="rgba(19, 22, 62, 1)"></path><path d="M1059.39 146.33L1130.68 146.33L1130.68 187.2L1059.39 187.2z" fill="rgba(31, 30, 37, 1)"></path><path d="M1022.13 556.84 a45.62 45.62 0 1 0 91.24 0 a45.62 45.62 0 1 0 -91.24 0z" fill="rgba(19, 22, 62, 1)"></path><path d="M953.97 731.2a65.58 65.58 0 1 0 104.36-79.44z" stroke="rgba(19, 22, 62, 1)"></path><path d="M47.03 767.26a62.29 62.29 0 1 0-4.68-124.49z" stroke="rgba(31, 30, 37, 1)"></path><path d="M347.32 577.59 a50.98 50.98 0 1 0 101.96 0 a50.98 50.98 0 1 0 -101.96 0z" fill="rgba(38, 177, 164, 1)"></path></g><defs><mask id="SvgjsMask1022"><rect width="1125" height="750" fill="#ffffff"></rect></mask><linearGradient x1="91.67%" y1="112.5%" x2="8.33%" y2="-12.5%" gradientUnits="userSpaceOnUse" id="SvgjsLinearGradient1023"><stop stop-color="rgba(249, 101, 71, 1)" offset="0"></stop><stop stop-color="rgba(244, 144, 41, 1)" offset="1"></stop></linearGradient></defs></svg>